# AST/ASF file generated using VICON BodyLanguage
# -----------------------------------------------
:version 1.10
:name VICON
:units
  mass 1.0
  length 0.45
  angle deg
:documentation
   .ast/.asf automatically generated from VICON data using
   VICON BodyBuilder and BodyLanguage model FoxedUp or BRILLIANT.MOD
:root
   order TX TY TZ RX RY RZ
   axis XYZ
   position 0 0 0  
   orientation 0 0 0 
:bonedata
  begin
     id 1 
     name lhipjoint
     direction 0.710087 -0.641647 0.289942 
     length 2.79038 
     axis 0 0 0  XYZ
  end
  begin
     id 2 
     name lfemur
     direction 0.34202 -0.939693 0  
     length 7.2706  
     axis 0 0 20  XYZ
    dof rx ry rz
    limits (-160.0 20.0)
           (-70.0 70.0)
           (-60.0 70.0)
  end
  begin
     id 3 
     name ltibia
     direction 0.34202 -0.939693 0   
     length 7.86328   
     axis 0 0 20   XYZ
    dof rx
    limits (-10.0 170.0)
  end
  begin
     id 4 
     name lfoot
     direction 0.0541246 -0.148706 0.987399   
     length 2.37542   
     axis -90 7.62852e-016 20   XYZ
    dof rx rz
    limits (-45.0 90.0)
           (-70.0 20.0)
  end
  begin
     id 5 
     name ltoes
     direction 1.53554e-011 -4.21866e-011 1   
     length 1.19593   
     axis -90 7.62852e-016 20   XYZ
    dof rx
    limits (-90.0 20.0)
  end
  begin
     id 6 
     name rhipjoint
     direction -0.675762 -0.671724 0.303533   
     length 2.66544  
     axis 0 0 0  XYZ 
  end
  begin
     id 7 
     name rfemur
     direction -0.34202 -0.939693 0   
     length 8.11844   
     axis 0 0 -20   XYZ
    dof rx ry rz
    limits (-160.0 20.0)
           (-70.0 70.0)
           (-70.0 60.0)
  end
  begin
     id 8 
     name rtibia
     direction -0.34202 -0.939693 0   
     length 7.97082   
     axis 0 0 -20   XYZ
    dof rx
    limits (-10.0 170.0)
 end
 begin
     id 9 
     name rfoot
     direction -0.0726228 -0.199474 0.977208   
     length 2.19677  
     axis -90 -7.62852e-016 -20   XYZ
    dof rx rz
    limits (-45.0 90.0)
           (-20.0 70.0)
  end
  begin
     id 10 
     name rtoes
     direction -1.53508e-011 -4.21913e-011 1   
     length 1.10438   
     axis -90 -7.62852e-016 -20   XYZ
    dof rx
    limits (-90.0 20.0)
  end
  begin
     id 11 
     name lowerback
     direction -0.00404436 0.999673 -0.0252643   
     length 2.03972   
     axis 0 0 0   XYZ
    dof rx ry rz
    limits (-20.0 45.0)
           (-30.0 30.0)
           (-30.0 30.0)
  end
  begin
     id 12 
     name upperback
     direction 0.00744643 0.999969 0.00242763   
     length 2.04273   
     axis 0 0 0   XYZ
    dof rx ry rz
    limits (-20.0 45.0)
           (-30.0 30.0)
           (-30.0 30.0)
  end
  begin
     id 13 
     name thorax
     direction 0.00846113 0.999862 0.0143204   
     length 2.03752   
     axis 0 0 0   XYZ
    dof rx ry rz
    limits (-20.0 45.0)
           (-30.0 30.0)
           (-30.0 30.0)
  end
  begin
     id 14 
     name lowerneck
     direction 0.0328213 0.990857 0.130862   
     length 1.37497   
     axis 0 0 0   XYZ
    dof rx ry rz
    limits (-20.0 45.0)
           (-30.0 30.0)
           (-30.0 30.0)
  end
  begin
     id 15 
     name upperneck
     direction -0.0302832 0.999496 0.00956452   
     length 1.35926   
     axis 0 0 0   XYZ
    dof rx ry rz
    limits (-20.0 45.0)
           (-30.0 30.0)
           (-30.0 30.0)
  end
  begin
     id 16
     name head
     direction -0.0130455 0.999856 -0.0108809  
     length 1.44454  
     axis 0 0 0   XYZ
    dof rx ry rz
    limits (-20.0 45.0)
           (-30.0 30.0)
           (-30.0 30.0)
  end
  begin
     id 17 
     name lclavicle
     direction 0.952957 0.278766 0.119006  
     length 3.10112  
     axis 0 0 0   XYZ
    dof ry rz
    limits (-20.0 10.0)
           (0.0 20.0)
  end
  begin
     id 18 
     name lhumerus
     direction 1 -4.48972e-011 -1.63238e-028   
     length 5.82845   
     axis -180 -30 -90   XYZ
    dof rx ry rz
    limits (-60.0 90.0)
           (-90.0 90.0)
           (-90.0 90.0)
  end
  begin
     id 19
     name lradius
     direction 1 -4.48959e-011 1.45401e-026   
     length 3.49691   
     axis -180 -30 -90   XYZ
    dof rx
    limits (-10.0 170.0)
  end
  begin
     id 20
     name lwrist
     direction 1 -4.48945e-011 2.98015e-026   
     length 1.74845   
     axis -1.7599e-014 90 90   XYZ
    dof ry
    limits (-180.0 0.0)
 end
  begin
     id 21 
     name lhand
     direction 1 -4.4902e-011 5.9603e-026   
     length 0.674998   
     axis -3.80318e-014 90 90   XYZ
    dof rx rz
    limits (-90.0 90.0)
           (-45.0 45.0)
  end
  begin
     id 22 
     name lfingers
     direction 1 -4.48979e-011 1.19206e-025   
     length 0.544201   
     axis -7.60636e-014 90 90   XYZ
    dof rx
    limits (0.0 90.0)
  end
  begin
     id 23
     name lthumb
     direction 0.707107 -6.34941e-011 0.707107   
     length 0.781367   
     axis -90 45 2.85299e-015   XYZ
    dof rx rz
    limits (-45.0 45.0)
           (-45.0 45.0)
  end
  begin
     id 24 
     name rclavicle
     direction -0.967632 0.241887 0.0719654   
     length 3.53012  
     axis 0 0 0   XYZ 
    dof ry rz
    limits (-10.0 20.0)
           (-20.0 0.0)
  end
  begin
     id 25 
     name rhumerus
     direction -1 -4.4897e-011 6.87619e-028  
     length 5.45859   
     axis -180 30 90   XYZ
    dof rx ry rz
    limits (-90.0 60.0)
           (-90.0 90.0)
           (-90.0 90.0)
  end
  begin
     id 26 
     name rradius
     direction -1 -4.48967e-011 1.68055e-026   
     length 3.58491   
     axis -180 30 90   XYZ
    dof rx
    limits (-10.0 170.0)
  end
  begin
     id 27 
     name rwrist
     direction -1 -4.48976e-011 2.98015e-026   
     length 1.79245   
     axis -1.7599e-014 -90 -90   XYZ
    dof ry
    limits (-180.0 0.0)
  end
  begin
     id 28
     name rhand
     direction -1 -4.48996e-011 5.9603e-026   
     length 0.683735   
     axis -3.80318e-014 -90 -90   XYZ
    dof rx rz
    limits (-90.0 90.0)
           (-45.0 45.0)
  end
  begin
     id 29
     name rfingers
     direction -1 -4.48924e-011 1.19206e-025   
     length 0.551245   
     axis -7.60636e-014 -90 -90   XYZ
    dof rx
    limits (0.0 90.0)
  end
  begin
     id 30
     name rthumb
     direction -0.707107 -6.3492e-011 0.707107   
     length 0.791481   
     axis -90 -45 -2.85299e-015   XYZ
    dof rx rz
    limits (-45.0 45.0)
           (-45.0 45.0)
  end
:hierarchy
  begin
    root lhipjoint rhipjoint lowerback
    lhipjoint lfemur
    lfemur ltibia
    ltibia lfoot
    lfoot ltoes
    rhipjoint rfemur
    rfemur rtibia
    rtibia rfoot
    rfoot rtoes
    lowerback upperback
    upperback thorax
    thorax lowerneck lclavicle rclavicle
    lowerneck upperneck
    upperneck head
    lclavicle lhumerus
    lhumerus lradius
    lradius lwrist
    lwrist lhand lthumb
    lhand lfingers
    rclavicle rhumerus
    rhumerus rradius
    rradius rwrist
    rwrist rhand rthumb
    rhand rfingers
  end

#!OML:ASF F:\VICON\USERDATA\INSTALL\rory3\rory3.ASF
:FULLY-SPECIFIED
:DEGREES
1691
root 0.330161 18.1303 -31.8264 -172.931 -172.533 177.207
lowerback -4.83528 1.95362 -2.37979
upperback -2.88795 2.69316 0.302861
thorax -0.384942 1.37928 1.75891
lowerneck -6.42135 4.22385 3.1393
upperneck -1.74014 5.41284 -1.95291
head 0.67434 2.66743 -0.986306
rclavicle 2.98301e-014 -9.54166e-015
rhumerus -30.3999 28.8257 -84.248
rradius 83.4506
rwrist -5.9211
rhand -17.8275 414.792
rfingers 7.12502
rthumb 8.43679 -335.02
lclavicle 2.98301e-014 -9.54166e-015
lhumerus -25.1184 -26.0087 79.4497
lradius 95.7607
lwrist 55.5982
lhand -22.083 420.408
lfingers 7.12502
lthumb -175.671 449.656
rfemur -19.7596 10.6842 19.087
rtibia 40.0965
rfoot -31.9395 -2.51473
rtoes 20.0004
lfemur -12.3414 -6.75979 -18.708
ltibia 24.5361
lfoot -17.3367 19.2186
ltoes 0.589445
1692
root 0.30446 18.1291 -31.8297 -173.005 -172.303 177.059
lowerback -4.85449 2.11451 -2.16296
upperback -3.10451 2.89684 0.226808
thorax -0.591677 1.48202 1.56309
lowerneck -5.93678 4.16615 3.36376
upperneck -1.79198 5.33737 -1.98946
head 0.582941 2.63052 -1.04769
rclavicle -3.29486e-014 3.97569e-015
rhumerus -27.233 29.116 -82.9153
rradius 85.0886
rwrist -6.37977
rhand -18.9876 414.971
rfingers 7.12502
rthumb 7.31714 -334.882
lclavicle -3.29486e-014 3.97569e-015
lhumerus -22.0441 -26.742 77.9907
lradius 98.1401
lwrist 56.6469
lhand -24.6951 422.256
lfingers 7.12502
lthumb -178.194 447.772
rfemur -19.7078 10.9226 19.3435
rtibia 40.1186
rfoot -31.9464 -2.69454
rtoes 19.4463
lfemur -12.1868 -6.8384 -18.4834
ltibia 24.5093
lfoot -17.6472 19.3678
ltoes 1.19006
1693
root 0.280851 18.1282 -31.8536 -173.259 -172.704 177.12
lowerback -4.46434 1.98965 -2.28461
upperback -3.249 2.72469 0.265802
thorax -0.958104 1.4038 1.64505
lowerneck -5.56627 4.20476 3.45277
upperneck -1.96427 5.39551 -2.14228
head 0.476554 2.65883 -1.11806
rclavicle -2.45499e-014 -9.14409e-015
rhumerus -23.7469 29.3451 -81.3622
rradius 86.4743
rwrist -6.688
rhand -20.1852 415.596
rfingers 7.12502
rthumb 6.16097 -334.295
lclavicle -2.45499e-014 -9.14409e-015
lhumerus -18.8085 -27.2687 76.7282
lradius 99.8293
lwrist 58.8954
lhand -28.6484 420.147
lfingers 7.12502
lthumb -182.012 449.882
rfemur -19.4689 10.7789 19.451
rtibia 40.181
rfoot -32.1689 -2.81587
rtoes 19.5771
lfemur -11.9991 -7.51058 -18.4577
ltibia 24.4388
lfoot -17.862 19.52
ltoes 1.73881
1694
root 0.268194 18.1292 -31.8752 -173.344 -173.394 177.415
lowerback -4.37848 1.76642 -2.46964
upperback -3.34699 2.42985 0.193985
thorax -1.09836 1.26133 1.66034
lowerneck -5.21722 4.26642 3.53235
upperneck -2.33743 5.48234 -2.31228
head 0.312811 2.70079 -1.19383
rclavicle 5.10628e-015 -2.62396e-014
rhumerus -20.1266 29.2101 -79.7985
rradius 87.6816
rwrist -7.01196
rhand -20.8688 416.247
rfingers 7.12502
rthumb 5.501 -333.661
lclavicle 5.10628e-015 -2.62396e-014
lhumerus -14.8731 -26.7218 75.1892
lradius 101.117
lwrist 59.2029
lhand -28.5723 422.341
lfingers 7.12502
lthumb -181.939 447.688
rfemur -19.3984 10.094 19.2456
rtibia 40.2572
rfoot -32.1682 -2.91902
rtoes 19.3224
lfemur -12.0824 -7.64693 -18.6709
ltibia 24.3723
lfoot -17.3622 19.1287
ltoes 1.06079
1695
root 0.258154 18.1292 -31.8858 -173.427 -173.769 177.613
lowerback -4.33729 1.73236 -2.44453
upperback -3.43397 2.38025 -0.0376547
thorax -1.19731 1.2354 1.40401
lowerneck -4.98623 4.323 3.66871
upperneck -2.66391 5.55704 -2.16226
head 0.174354 2.7376 -1.17693
rclavicle 9.74045e-015 -9.93923e-015
rhumerus -16.64 28.6369 -78.56
rradius 88.6684
rwrist -7.54359
rhand -21.3632 416.197
rfingers 7.12502
rthumb 5.02364 -333.724
lclavicle 9.74045e-015 -9.93923e-015
lhumerus -10.9442 -26.3552 73.5447
lradius 101.872
lwrist 59.5162
lhand -28.6896 423.56
lfingers 7.12502
lthumb -182.052 446.47
rfemur -19.3239 9.74966 19.1113
rtibia 40.3338
rfoot -32.2322 -3.08552
rtoes 18.9059
lfemur -12.0524 -7.66887 -18.8325
ltibia 24.2801
lfoot -16.9322 18.9603
ltoes 0.270323
1696
root 0.243808 18.1288 -31.8989 -173.6 -173.963 177.585
lowerback -3.69027 1.77798 -2.28575
upperback -3.73053 2.414 -0.216657
thorax -1.85064 1.2564 1.10311
lowerneck -4.86975 4.29407 3.88513
upperneck -2.73589 5.512 -2.12505
head 0.136734 2.71356 -1.20632
rclavicle -2.23136e-014 -2.78299e-015
rhumerus -13.7477 27.9561 -77.7489
rradius 89.5098
rwrist -8.17726
rhand -22.0583 416.43
rfingers 7.12502
rthumb 4.35252 -333.505
lclavicle -2.23136e-014 -2.78299e-015
lhumerus -7.47807 -25.8733 72.1897
lradius 102.343
lwrist 59.9688
lhand -28.5812 423.879
lfingers 7.12502
lthumb -181.947 446.15
rfemur -19.1478 9.90121 19.2515
rtibia 40.3781
rfoot -32.5266 -3.60985
rtoes 18.0883
lfemur -11.9049 -7.44694 -18.7435
ltibia 24.1923
lfoot -16.5916 18.6529
ltoes -0.0946994
